<svg width="83" height="83" viewBox="0 0 83 83" fill="none" xmlns="http://www.w3.org/2000/svg">
<path d="M81.8736 36.8867L45.4418 36.8867L45.4418 22.7841L67.3793 22.7841L67.3793 14.5576L45.4418 14.5576L45.4418 0.0631828L81.8736 0.0631812L81.8736 36.8867Z" fill="#4C51BF"/>
<path d="M3.05176e-05 45.5051L36.4318 45.5051L36.4318 59.6078L14.4944 59.6078L14.4944 67.8343L36.4318 67.8343L36.4318 82.3287L2.8908e-05 82.3287L3.05176e-05 45.5051Z" fill="#4C51BF"/>
<path d="M0 36.495V0.0632324H14.1026V22.0007H22.3292V17.6915H36.8235V36.495H0Z" fill="#4C51BF"/>
<path d="M37.2654 16H22.2654V0H37.2654V16Z" fill="#090909"/>
<path d="M82.2654 45.505L82.2654 81.9368L68.1627 81.9368L68.1628 59.9993L59.9362 59.9993L59.9362 64.3085L45.4418 64.3085L45.4418 45.505L82.2654 45.505Z" fill="#4C51BF"/>
<path d="M45.2654 66L60.2654 66L60.2654 82L45.2654 82L45.2654 66Z" fill="#090909"/>
</svg>
