<svg width="380" height="98" viewBox="0 0 380 98" fill="none" xmlns="http://www.w3.org/2000/svg">
<path d="M81.8736 44.7224L45.4418 44.7224L45.4418 30.6198L67.3793 30.6198L67.3793 22.3932L45.4418 22.3932L45.4418 7.89888L81.8736 7.89887L81.8736 44.7224Z" fill="#4C51BF"/>
<path d="M3.05176e-05 53.3408L36.4318 53.3408L36.4318 67.4435L14.4944 67.4435L14.4944 75.67L36.4318 75.67L36.4318 90.1644L2.8908e-05 90.1644L3.05176e-05 53.3408Z" fill="#4C51BF"/>
<path d="M0 44.3307V7.89893H14.1026V29.8363H22.3292V25.5272H36.8235V44.3307H0Z" fill="#4C51BF"/>
<path d="M37.2654 23.8357H22.2654V7.83569H37.2654V23.8357Z" fill="#090909"/>
<path d="M82.2654 53.3407L82.2654 89.7725L68.1627 89.7725L68.1628 67.835L59.9362 67.835L59.9362 72.1442L45.4418 72.1442L45.4418 53.3407L82.2654 53.3407Z" fill="#4C51BF"/>
<path d="M45.2654 73.8357L60.2654 73.8357L60.2654 89.8357L45.2654 89.8357L45.2654 73.8357Z" fill="#090909"/>
<path d="M109.505 66.8128H112.67C116.301 66.8128 118.902 66.3467 120.472 65.4144C122.042 64.4821 122.827 62.9856 122.827 60.9248C122.827 58.864 122.042 57.3675 120.472 56.4352C118.902 55.5029 116.301 55.0368 112.67 55.0368H109.505V66.8128ZM109.505 44.2912H112.155C116.669 44.2912 118.926 42.5003 118.926 38.9184C118.926 35.3365 116.669 33.5456 112.155 33.5456H109.505V44.2912ZM95.0798 22.5056H116.571C121.674 22.5056 125.55 23.7323 128.2 26.1856C130.849 28.6389 132.174 32.1717 132.174 36.784C132.174 39.5808 131.659 41.9115 130.629 43.776C129.647 45.5915 128.126 47.1371 126.065 48.4128C128.126 48.8053 129.868 49.4187 131.291 50.2528C132.763 51.0379 133.941 52.0192 134.824 53.1968C135.756 54.3744 136.418 55.6992 136.811 57.1712C137.204 58.6432 137.4 60.2133 137.4 61.8816C137.4 64.4821 136.934 66.7883 136.001 68.8C135.118 70.8117 133.842 72.5045 132.174 73.8784C130.555 75.2523 128.568 76.2827 126.213 76.9696C123.857 77.6565 121.208 78 118.264 78H95.0798V22.5056ZM158.11 40.2432V61.5136C158.11 66.1749 160.367 68.5056 164.881 68.5056C169.395 68.5056 171.652 66.1749 171.652 61.5136V40.2432H184.974V64.0896C184.974 69.1925 183.281 73.0197 179.895 75.5712C176.559 78.1227 171.554 79.3984 164.881 79.3984C158.208 79.3984 153.178 78.1227 149.793 75.5712C146.456 73.0197 144.788 69.1925 144.788 64.0896V40.2432H158.11ZM207.712 72.848L189.459 40.2432H204.915L214.998 59.6L224.787 40.2432H240.096L209.773 96.8416H194.832L207.712 72.848ZM255.267 58.9376C255.267 60.2133 255.488 61.3909 255.93 62.4704C256.42 63.5008 257.034 64.4085 257.77 65.1936C258.555 65.9787 259.463 66.592 260.493 67.0336C261.572 67.4752 262.701 67.696 263.879 67.696C265.056 67.696 266.16 67.4752 267.19 67.0336C268.27 66.592 269.178 65.9787 269.914 65.1936C270.699 64.4085 271.312 63.5008 271.754 62.4704C272.244 61.3909 272.49 60.2379 272.49 59.0112C272.49 57.8336 272.244 56.7296 271.754 55.6992C271.312 54.6197 270.699 53.6875 269.914 52.9024C269.178 52.1173 268.27 51.504 267.19 51.0624C266.16 50.6208 265.056 50.4 263.879 50.4C262.701 50.4 261.572 50.6208 260.493 51.0624C259.463 51.504 258.555 52.1173 257.77 52.9024C257.034 53.6875 256.42 54.5952 255.93 55.6256C255.488 56.656 255.267 57.76 255.267 58.9376ZM241.21 58.7904C241.21 55.9936 241.774 53.3931 242.903 50.9888C244.031 48.5355 245.601 46.4256 247.613 44.6592C249.625 42.8437 252.004 41.4208 254.752 40.3904C257.549 39.36 260.591 38.8448 263.879 38.8448C267.117 38.8448 270.11 39.36 272.858 40.3904C275.655 41.3717 278.059 42.7701 280.071 44.5856C282.131 46.352 283.726 48.4864 284.855 50.9888C285.983 53.4421 286.547 56.1653 286.547 59.1584C286.547 62.1515 285.959 64.8992 284.781 67.4016C283.652 69.8549 282.082 71.9893 280.071 73.8048C278.059 75.5712 275.63 76.9451 272.784 77.9264C269.987 78.9077 266.945 79.3984 263.658 79.3984C260.419 79.3984 257.426 78.9077 254.679 77.9264C251.931 76.9451 249.551 75.5467 247.539 73.7312C245.577 71.9157 244.031 69.7568 242.903 67.2544C241.774 64.7029 241.21 61.8816 241.21 58.7904ZM324.318 59.232C324.318 58.0544 324.098 56.9504 323.656 55.92C323.264 54.8405 322.675 53.9083 321.89 53.1232C321.105 52.3381 320.172 51.7248 319.093 51.2832C318.062 50.7925 316.934 50.5472 315.707 50.5472C314.53 50.5472 313.426 50.768 312.395 51.2096C311.365 51.6512 310.457 52.2645 309.672 53.0496C308.936 53.8347 308.323 54.7669 307.832 55.8464C307.39 56.8768 307.17 57.9808 307.17 59.1584C307.17 60.336 307.39 61.44 307.832 62.4704C308.274 63.5008 308.887 64.4085 309.672 65.1936C310.457 65.9296 311.365 66.5429 312.395 67.0336C313.475 67.4752 314.603 67.696 315.781 67.696C316.958 67.696 318.062 67.4752 319.093 67.0336C320.123 66.592 321.006 65.9787 321.742 65.1936C322.528 64.4085 323.141 63.5008 323.582 62.4704C324.073 61.44 324.318 60.3605 324.318 59.232ZM307.538 96.8416H294.216V40.2432H307.538V44.4384C310.384 40.8565 314.26 39.0656 319.166 39.0656C321.865 39.0656 324.368 39.6053 326.674 40.6848C329.029 41.7152 331.065 43.1381 332.782 44.9536C334.5 46.7691 335.825 48.9035 336.757 51.3568C337.738 53.8101 338.229 56.4352 338.229 59.232C338.229 62.0288 337.738 64.6293 336.757 67.0336C335.825 69.4379 334.5 71.5477 332.782 73.3632C331.114 75.1787 329.127 76.6016 326.821 77.632C324.515 78.6624 322.012 79.1776 319.314 79.1776C314.603 79.1776 310.678 77.5584 307.538 74.32V96.8416ZM370.846 49.9584C368.393 48.6827 365.989 48.0448 363.634 48.0448C362.407 48.0448 361.401 48.2901 360.616 48.7808C359.88 49.2715 359.512 49.9339 359.512 50.768C359.512 51.2096 359.561 51.5776 359.659 51.872C359.806 52.1173 360.076 52.3627 360.469 52.608C360.91 52.8533 361.524 53.0741 362.309 53.2704C363.143 53.4667 364.222 53.712 365.547 54.0064C369.227 54.7424 371.975 56.0672 373.79 57.9808C375.606 59.8453 376.514 62.2496 376.514 65.1936C376.514 67.4016 376.072 69.3888 375.189 71.1552C374.306 72.9216 373.079 74.4181 371.509 75.6448C369.939 76.8224 368.05 77.7301 365.842 78.368C363.634 79.0549 361.205 79.3984 358.555 79.3984C353.452 79.3984 348.423 77.9509 343.467 75.056L348.325 65.6352C352.054 68.1867 355.587 69.4624 358.923 69.4624C360.15 69.4624 361.156 69.1925 361.941 68.6528C362.726 68.1131 363.118 67.4261 363.118 66.592C363.118 66.1013 363.045 65.7088 362.898 65.4144C362.799 65.0709 362.554 64.7765 362.162 64.5312C361.769 64.2368 361.18 63.9915 360.395 63.7952C359.659 63.5499 358.678 63.3045 357.451 63.0592C353.33 62.2251 350.435 60.9984 348.766 59.3792C347.147 57.7109 346.338 55.4293 346.338 52.5344C346.338 50.4245 346.73 48.5355 347.515 46.8672C348.3 45.1499 349.429 43.7024 350.901 42.5248C352.373 41.3472 354.139 40.4395 356.2 39.8016C358.31 39.1637 360.64 38.8448 363.192 38.8448C367.363 38.8448 371.411 39.6544 375.336 41.2736L370.846 49.9584Z" fill="black"/>
</svg>
